<svg width="30" height="30" viewBox="0 0 30 30" fill="none" xmlns="http://www.w3.org/2000/svg">
<circle cx="15" cy="15" r="15" fill="white"/>
<path fill-rule="evenodd" clip-rule="evenodd" d="M15 7C12.8267 7 12.556 7.00933 11.7013 7.04933C8.79467 7.18267 7.18133 8.79467 7.048 11.7013C7.00933 12.556 7 12.828 7 15C7 17.1733 7.00933 17.4453 7.048 18.2987C7.18133 21.204 8.79467 22.8187 11.7013 22.952C12.556 22.9907 12.8267 23 15 23C17.1733 23 17.4453 22.9907 18.3 22.952C21.2013 22.8187 22.8213 21.2067 22.952 18.2987C22.9907 17.4453 23 17.1733 23 15C23 12.828 22.9907 12.556 22.952 11.7013C22.8213 8.79867 21.2067 7.18133 18.3 7.04933C17.4453 7.00933 17.1733 7 15 7ZM15 8.44267C17.136 8.44267 17.3893 8.45067 18.2333 8.48933C20.4027 8.588 21.4133 9.616 21.5133 11.768C21.5507 12.612 21.5587 12.864 21.5587 15C21.5587 17.136 21.5507 17.3893 21.5133 18.232C21.4133 20.3827 20.404 21.4133 18.2333 21.512C17.3893 21.5493 17.1373 21.5587 15 21.5587C12.864 21.5587 12.6107 21.5507 11.768 21.512C9.59467 21.412 8.588 20.38 8.488 18.232C8.45067 17.3893 8.44133 17.136 8.44133 15C8.44133 12.864 8.45067 12.6107 8.488 11.768C8.58667 9.61467 9.59733 8.58667 11.768 8.488C12.6107 8.44933 12.864 8.44267 15 8.44267ZM10.892 15C10.892 12.7307 12.732 10.892 15 10.892C17.268 10.892 19.108 12.732 19.108 15C19.108 17.2693 17.268 19.108 15 19.108C12.732 19.108 10.892 17.2693 10.892 15ZM15 17.6667C13.5267 17.6667 12.3333 16.4733 12.3333 15C12.3333 13.528 13.5267 12.3333 15 12.3333C16.472 12.3333 17.668 13.5267 17.668 15C17.668 16.4733 16.472 17.6667 15 17.6667ZM18.3093 10.7307C18.3093 10.2 18.74 9.77067 19.2693 9.77067C19.8013 9.77067 20.2307 10.2 20.2307 10.7307C20.2307 11.2613 19.8 11.6907 19.2693 11.6907C18.7387 11.6907 18.3093 11.26 18.3093 10.7307Z" fill="#282B36"/>
</svg>
