<svg width="30" height="30" viewBox="0 0 30 30" fill="none" xmlns="http://www.w3.org/2000/svg">
<g id="Twitter">
<circle id="Oval 1" cx="15" cy="15" r="15" fill="white"/>
<path id="Fill 1" fill-rule="evenodd" clip-rule="evenodd" d="M21.871 9.26277C21.4476 9.53396 20.4755 9.92804 19.9961 9.92804V9.92885C19.4487 9.357 18.6781 9 17.8234 9C16.1634 9 14.8173 10.3461 14.8173 12.0054C14.8173 12.236 14.844 12.4609 14.8934 12.6765H14.8929C12.6411 12.6174 10.1784 11.4888 8.69582 9.55711C7.7843 11.1349 8.5731 12.8896 9.60751 13.529C9.25342 13.5557 8.60159 13.4882 8.29478 13.1888C8.27422 14.236 8.77775 15.6235 10.6137 16.1269C10.2601 16.3171 9.63422 16.2626 9.36206 16.2221C9.45758 17.1061 10.6955 18.2618 12.0492 18.2618C11.5667 18.8198 9.75144 19.8321 7.71436 19.51C9.09783 20.3518 10.7102 20.8393 12.4169 20.8393C17.2667 20.8393 21.0331 16.9087 20.8304 12.0598C20.8296 12.0545 20.8296 12.0492 20.8291 12.0433C20.8296 12.0309 20.8304 12.0184 20.8304 12.0054C20.8304 11.9904 20.8291 11.9761 20.8286 11.9616C21.2702 11.6596 21.8626 11.1255 22.2858 10.4225C22.0403 10.5577 21.304 10.8284 20.6188 10.8956C21.0585 10.6582 21.7101 9.88092 21.871 9.26277Z" fill="#282B36"/>
</g>
</svg>
