<svg width="30" height="30" viewBox="0 0 30 30" fill="none" xmlns="http://www.w3.org/2000/svg">
<g id="Linkedin">
<circle id="Oval 1 Copy 5" cx="15" cy="15" r="15" fill="white"/>
<path id="Fill 182" fill-rule="evenodd" clip-rule="evenodd" d="M9.15648 11.1287C10.1891 11.1287 11.0263 10.3653 11.0263 9.42245C11.0263 8.47881 10.1891 7.71436 9.15648 7.71436C8.12281 7.71436 7.28564 8.47881 7.28564 9.42245C7.28564 10.3653 8.12281 11.1287 9.15648 11.1287Z" fill="#282B36"/>
<path id="Fill 183" fill-rule="evenodd" clip-rule="evenodd" d="M7.71436 22.1046H11.0694V12.4285H7.71436V22.1046Z" fill="#282B36"/>
<path id="Fill 184" fill-rule="evenodd" clip-rule="evenodd" d="M15.778 16.723C15.778 15.6134 16.303 14.5283 17.5583 14.5283C18.8136 14.5283 19.1223 15.6134 19.1223 16.6965V21.9811H22.4623V16.4805C22.4623 12.6588 20.2033 12 18.8136 12C17.4251 12 16.6593 12.4697 15.778 13.6077V12.305H12.4285V21.9811H15.778V16.723Z" fill="#282B36"/>
</g>
</svg>
